<svg width="810" height="242" viewBox="0 0 810 242" fill="none" xmlns="http://www.w3.org/2000/svg">
<g filter="url(#filter0_d)">
<path d="M96.75 124.7V224H85.5V141.8L48.75 189.05L11.4 141.8V224H0.15V124.7H13.2L48.75 171.8L83.7 124.7H96.75ZM175.781 212C169.781 220.8 160.831 225.2 148.931 225.2C138.131 225.2 129.331 221.45 122.531 213.95C115.931 206.55 112.631 197.4 112.631 186.5C112.631 175.6 115.931 166.45 122.531 159.05C129.331 151.55 138.381 147.8 149.681 147.8C160.981 147.8 169.681 152.25 175.781 161.15V149H187.031V224H175.781V212ZM150.431 215C158.531 215 164.931 212.2 169.631 206.6C174.131 201.3 176.381 194.6 176.381 186.5C176.381 178.4 174.131 171.7 169.631 166.4C164.931 160.8 158.531 158 150.431 158C142.431 158 135.931 160.8 130.931 166.4C126.231 171.7 123.881 178.4 123.881 186.5C123.881 194.6 126.231 201.3 130.931 206.6C135.931 212.2 142.431 215 150.431 215ZM264.99 212C258.99 220.8 250.04 225.2 238.14 225.2C227.34 225.2 218.54 221.45 211.74 213.95C205.14 206.55 201.84 197.4 201.84 186.5C201.84 175.6 205.14 166.45 211.74 159.05C218.54 151.55 227.59 147.8 238.89 147.8C250.19 147.8 258.89 152.25 264.99 161.15V119H276.24V224H264.99V212ZM239.64 215C247.74 215 254.14 212.2 258.84 206.6C263.34 201.3 265.59 194.6 265.59 186.5C265.59 178.4 263.34 171.7 258.84 166.4C254.14 160.8 247.74 158 239.64 158C231.64 158 225.14 160.8 220.14 166.4C215.44 171.7 213.09 178.4 213.09 186.5C213.09 194.6 215.44 201.3 220.14 206.6C225.14 212.2 231.64 215 239.64 215ZM295.699 149H306.949V224H295.699V149ZM307.399 121.7V136.4H295.249V121.7H307.399ZM337.711 149V160.7C340.411 157.1 343.711 154.05 347.611 151.55C351.511 149.05 355.961 147.8 360.961 147.8C365.961 147.8 370.261 148.5 373.861 149.9C377.461 151.3 380.611 153.4 383.311 156.2C389.511 162.3 392.611 170.35 392.611 180.35V224H381.361V180.65C381.361 173.75 379.411 168.25 375.511 164.15C371.611 160.05 366.561 158 360.361 158C354.061 158 348.711 160.1 344.311 164.3C339.911 168.6 337.711 174.1 337.711 180.8V224H326.461V149H337.711ZM469.922 212C463.922 220.8 454.972 225.2 443.072 225.2C432.272 225.2 423.472 221.45 416.672 213.95C410.072 206.55 406.772 197.4 406.772 186.5C406.772 175.6 410.072 166.45 416.672 159.05C423.472 151.55 432.522 147.8 443.822 147.8C455.122 147.8 463.822 152.25 469.922 161.15V149H481.172V224H469.922V212ZM444.572 215C452.672 215 459.072 212.2 463.772 206.6C468.272 201.3 470.522 194.6 470.522 186.5C470.522 178.4 468.272 171.7 463.772 166.4C459.072 160.8 452.672 158 444.572 158C436.572 158 430.072 160.8 425.072 166.4C420.372 171.7 418.022 178.4 418.022 186.5C418.022 194.6 420.372 201.3 425.072 206.6C430.072 212.2 436.572 215 444.572 215ZM563.277 135.5H528.627V224H517.377V135.5H482.727V124.7H563.277V135.5ZM593.993 215C604.093 215 611.343 210.8 615.743 202.4H628.043C625.443 209.2 621.293 214.7 615.593 218.9C609.993 223.1 602.743 225.2 593.843 225.2C582.543 225.2 573.343 221.45 566.243 213.95C559.343 206.65 555.893 197.5 555.893 186.5C555.893 175.4 559.193 166.25 565.793 159.05C572.793 151.55 581.893 147.8 593.093 147.8C604.293 147.8 613.393 151.55 620.393 159.05C626.993 166.25 630.293 175.4 630.293 186.5V191H567.443C568.243 197.9 570.993 203.6 575.693 208.1C580.493 212.7 586.593 215 593.993 215ZM593.093 158C586.193 158 580.393 160.15 575.693 164.45C571.293 168.55 568.593 173.9 567.593 180.5H618.593C617.593 173.9 614.893 168.55 610.493 164.45C605.793 160.15 599.993 158 593.093 158ZM676.589 147.8C687.789 147.8 696.889 151.55 703.889 159.05C710.489 166.25 713.789 175.4 713.789 186.5C713.789 197.6 710.489 206.75 703.889 213.95C696.889 221.45 687.789 225.2 676.589 225.2C665.389 225.2 656.289 221.45 649.289 213.95C642.689 206.75 639.389 197.6 639.389 186.5C639.389 175.4 642.689 166.25 649.289 159.05C656.289 151.55 665.389 147.8 676.589 147.8ZM676.589 215C684.689 215 691.089 212.2 695.789 206.6C700.289 201.3 702.539 194.6 702.539 186.5C702.539 178.4 700.289 171.7 695.789 166.4C691.089 160.8 684.689 158 676.589 158C668.489 158 662.089 160.8 657.389 166.4C652.889 171.7 650.639 178.4 650.639 186.5C650.639 194.6 652.889 201.3 657.389 206.6C662.089 212.2 668.489 215 676.589 215Z" fill="#485460"/>
</g>
<g filter="url(#filter1_d)">
<g clip-path="url(#clip0)">
<path d="M766.004 73.3745C762.706 72.3511 759.387 71.7072 756.082 71.4467C753.422 54.4699 737.896 38.7157 716.747 32.1519C704.611 28.3853 691.863 28.0766 680.852 31.2824C671.268 34.0727 663.557 39.3479 658.777 46.3076C658.376 46.1694 657.972 46.0351 657.566 45.909C641.095 40.7971 624.538 46.7916 620.658 59.2714C616.777 71.7514 627.02 86.0635 643.491 91.1753L750.173 124.285C768.698 130.034 787.319 123.292 791.683 109.256C796.048 95.22 784.528 79.1235 766.004 73.3745ZM752.523 116.731L645.839 83.6213C634.866 80.2156 628.042 70.6805 630.627 62.3655C633.213 54.0508 644.244 50.057 655.217 53.4628C656.63 53.9014 658.004 54.4504 659.3 55.0952C661.858 56.3682 664.91 55.8892 666.12 54.028C666.159 53.9678 666.189 53.9053 666.224 53.8437C666.326 53.7083 666.423 53.5682 666.504 53.4169C670.104 46.6696 676.899 41.5524 685.639 39.0079C694.46 36.4398 704.674 36.6876 714.399 39.7057C732.666 45.3748 745.691 59.5964 746.221 74.3771C746.156 74.8205 746.182 75.2904 746.323 75.7757C746.978 78.0232 749.739 79.7063 752.491 79.5345C756.178 79.3044 759.935 79.7734 763.656 80.9283C776.683 84.9713 784.784 96.291 781.715 106.162C778.645 116.032 765.549 120.774 752.523 116.731Z" fill="#485460"/>
<path d="M648.394 98.4904C645.641 97.636 642.884 98.6344 642.235 100.72L637.639 115.502C636.99 117.588 638.696 119.972 641.449 120.826C644.202 121.68 646.96 120.682 647.608 118.596L652.205 103.814C652.853 101.729 651.147 99.3447 648.394 98.4904Z" fill="#485460"/>
<path d="M692.261 112.104C689.508 111.25 686.75 112.249 686.101 114.334L683.071 124.08C682.422 126.166 684.128 128.55 686.881 129.404C689.634 130.258 692.392 129.26 693.041 127.174L696.071 117.429C696.719 115.343 695.014 112.959 692.261 112.104Z" fill="#485460"/>
<path d="M714.65 119.023C711.897 118.169 709.14 119.167 708.491 121.253L703.895 136.035C703.246 138.121 704.952 140.504 707.705 141.359C710.458 142.213 713.216 141.215 713.864 139.129L718.461 124.347C719.109 122.261 717.403 119.877 714.65 119.023Z" fill="#485460"/>
<path d="M667.3 116.2C664.547 115.346 661.789 116.344 661.141 118.43L656.153 134.469C655.505 136.555 657.211 138.939 659.964 139.793C662.717 140.648 665.474 139.649 666.123 137.563L671.11 121.524C671.759 119.438 670.053 117.054 667.3 116.2Z" fill="#485460"/>
<path d="M733.944 136.883C731.191 136.029 728.433 137.027 727.784 139.113L722.797 155.152C722.148 157.238 723.854 159.622 726.607 160.476C729.36 161.331 732.118 160.332 732.767 158.246L737.754 142.207C738.402 140.121 736.696 137.738 733.944 136.883Z" fill="#485460"/>
</g>
</g>
<defs>
<filter id="filter0_d" x="0.150002" y="119" width="729.639" height="122.2" filterUnits="userSpaceOnUse" color-interpolation-filters="sRGB">
<feFlood flood-opacity="0" result="BackgroundImageFix"/>
<feColorMatrix in="SourceAlpha" type="matrix" values="0 0 0 0 0 0 0 0 0 0 0 0 0 0 0 0 0 0 127 0"/>
<feOffset dx="12" dy="12"/>
<feGaussianBlur stdDeviation="2"/>
<feColorMatrix type="matrix" values="0 0 0 0 0 0 0 0 0 0 0 0 0 0 0 0 0 0 0.25 0"/>
<feBlend mode="normal" in2="BackgroundImageFix" result="effect1_dropShadow"/>
<feBlend mode="normal" in="SourceGraphic" in2="effect1_dropShadow" result="shape"/>
</filter>
<filter id="filter1_d" x="599" y="0" width="226.236" height="197.729" filterUnits="userSpaceOnUse" color-interpolation-filters="sRGB">
<feFlood flood-opacity="0" result="BackgroundImageFix"/>
<feColorMatrix in="SourceAlpha" type="matrix" values="0 0 0 0 0 0 0 0 0 0 0 0 0 0 0 0 0 0 127 0"/>
<feOffset dx="12" dy="12"/>
<feGaussianBlur stdDeviation="2"/>
<feColorMatrix type="matrix" values="0 0 0 0 0 0 0 0 0 0 0 0 0 0 0 0 0 0 0.25 0"/>
<feBlend mode="normal" in2="BackgroundImageFix" result="effect1_dropShadow"/>
<feBlend mode="normal" in="SourceGraphic" in2="effect1_dropShadow" result="shape"/>
</filter>
<clipPath id="clip0">
<rect width="178.154" height="135.011" transform="matrix(0.955062 0.296407 -0.296922 0.954902 639.088 0)" fill="white"/>
</clipPath>
</defs>
</svg>
