<?xml version="1.0"?>
<svg xmlns="http://www.w3.org/2000/svg" width="512px" height="512px" viewBox="0 0 128 128"><g><g><path d="M64,0a64,64,0,1,0,64,64A64.073,64.073,0,0,0,64,0Zm0,124.5A60.5,60.5,0,1,1,124.5,64,60.568,60.568,0,0,1,64,124.5Z" data-original="#000000" class="active-path" data-old_color="#000000" fill="#485460"/><path d="M64,8a56,56,0,1,0,56,56A56.064,56.064,0,0,0,64,8Zm0,108.5A52.5,52.5,0,1,1,116.5,64,52.559,52.559,0,0,1,64,116.5Z" data-original="#000000" class="active-path" data-old_color="#000000" fill="#485460"/><path d="M64,31.13a1.751,1.751,0,0,0,1.75-1.75V19.755a1.75,1.75,0,1,0-3.5,0V29.38A1.751,1.751,0,0,0,64,31.13Z" data-original="#000000" class="active-path" data-old_color="#000000" fill="#485460"/><path d="M88.478,41.269a1.743,1.743,0,0,0,1.237-.513l6.806-6.8a1.75,1.75,0,1,0-2.475-2.475l-6.805,6.806a1.75,1.75,0,0,0,1.237,2.987Z" data-original="#000000" class="active-path" data-old_color="#000000" fill="#485460"/><path d="M38.285,87.238l-6.806,6.805a1.75,1.75,0,1,0,2.475,2.475l6.805-6.806a1.749,1.749,0,1,0-2.474-2.474Z" data-original="#000000" class="active-path" data-old_color="#000000" fill="#485460"/><path d="M108.242,62.247H98.617a1.75,1.75,0,0,0,0,3.5h9.625a1.75,1.75,0,0,0,0-3.5Z" data-original="#000000" class="active-path" data-old_color="#000000" fill="#485460"/><path d="M29.383,62.247H19.758a1.75,1.75,0,1,0,0,3.5h9.625a1.75,1.75,0,0,0,0-3.5Z" data-original="#000000" class="active-path" data-old_color="#000000" fill="#485460"/><path d="M89.715,87.238a1.749,1.749,0,0,0-2.474,2.474l6.805,6.806a1.75,1.75,0,0,0,2.475-2.475Z" data-original="#000000" class="active-path" data-old_color="#000000" fill="#485460"/><path d="M33.954,31.476a1.75,1.75,0,1,0-2.475,2.475l6.806,6.805a1.749,1.749,0,0,0,2.474-2.474Z" data-original="#000000" class="active-path" data-old_color="#000000" fill="#485460"/><path d="M76.8,94.989a1.744,1.744,0,0,0-1.829-.409,32.6,32.6,0,0,1-21.938,0,1.748,1.748,0,0,0-1.829.409l-7.63,7.63a1.75,1.75,0,0,0,.476,2.813,45.957,45.957,0,0,0,39.9,0,1.75,1.75,0,0,0,.476-2.813ZM64,106.489A41.992,41.992,0,0,1,47.842,103.3l5.063-5.063a36.11,36.11,0,0,0,22.19,0l5.063,5.063A41.992,41.992,0,0,1,64,106.489Z" data-original="#000000" class="active-path" data-old_color="#000000" fill="#485460"/><path d="M64,83.185a10.461,10.461,0,0,0,6.04-19.008L65.719,41.362a1.75,1.75,0,0,0-3.438,0L57.96,64.177A10.461,10.461,0,0,0,64,83.185ZM60.438,66.736a1.749,1.749,0,0,0,.822-1.177L64,51.093l2.74,14.466a1.748,1.748,0,0,0,.821,1.177,6.969,6.969,0,1,1-7.123,0Z" data-original="#000000" class="active-path" data-old_color="#000000" fill="#485460"/></g><script xmlns="" class="active-path"/></g> </svg>
