<?xml version="1.0"?>
<svg xmlns="http://www.w3.org/2000/svg" id="Capa_1" enable-background="new 0 0 512 512" height="512px" viewBox="0 0 512 512" width="512px"><g><g><path d="m46 512h120c8.291 0 15-6.709 15-15s-6.709-15-15-15h-45v-265.194l60 19.999v19.195c0 4.409 1.934 8.599 5.303 11.44 3.251 2.762 7.607 4.086 12.158 3.354l62.539-10.423v-188.744l-62.539-10.422c-4.307-.688-8.804.513-12.158 3.354-3.369 2.842-5.303 7.032-5.303 11.441v19.195l-60 19.999v-85.194h15c8.291 0 15-6.709 15-15s-6.709-15-15-15h-60c-8.291 0-15 6.709-15 15s6.709 15 15 15h15v452h-45c-8.291 0-15 6.709-15 15s6.709 15 15 15zm135-385.194v78.387l-60-19.999v-38.39z" data-original="#000000" class="active-path" data-old_color="#000000" fill="#485460"/><path d="m371 89.962-80-13.334v178.744l80-13.334z" data-original="#000000" class="active-path" data-old_color="#000000" fill="#485460"/><path d="m481 211v-90c0-7.339-5.303-13.594-12.539-14.795l-67.461-11.243v142.075l67.461-11.243c7.236-1.2 12.539-7.455 12.539-14.794z" data-original="#000000" class="active-path" data-old_color="#000000" fill="#485460"/></g><script xmlns="" class="active-path"/></g> </svg>
